<?xml version="1.0" standalone="no"?>
<!DOCTYPE svg PUBLIC "-//W3C//DTD SVG 20010904//EN"
 "http://www.w3.org/TR/2001/REC-SVG-20010904/DTD/svg10.dtd">
<svg version="1.0" xmlns="http://www.w3.org/2000/svg"
 width="821.000000pt" height="425.000000pt" viewBox="0 0 821.000000 425.000000"
 preserveAspectRatio="xMidYMid meet">
<metadata>
Created by potrace 1.15, written by Peter Selinger 2001-2017
</metadata>
<g transform="translate(0.000000,425.000000) scale(0.100000,-0.100000)"
fill="#000000" stroke="none">
<path d="M3300 4143 c-1 -129 -54 -283 -124 -361 -42 -46 -136 -98 -257 -140
l-87 -31 -143 86 -144 85 -95 -100 -95 -99 -385 -8 c-365 -6 -387 -8 -428 -28
-64 -32 -87 -69 -86 -142 0 -74 29 -134 77 -164 32 -20 48 -21 260 -21 l226 0
47 -57 c72 -89 99 -154 98 -238 -1 -38 -8 -88 -16 -110 l-15 -40 -526 -5 -525
-5 -27 -25 c-43 -40 -58 -77 -53 -135 5 -57 27 -94 82 -132 30 -22 44 -24 241
-29 l210 -6 53 -36 c30 -20 64 -53 77 -77 52 -88 21 -213 -72 -295 l-45 -39
-672 -3 -671 -3 -38 -24 c-48 -30 -67 -67 -67 -128 0 -60 25 -103 81 -140 l41
-27 767 -4 c421 -2 790 -7 819 -12 78 -14 175 -65 226 -120 62 -67 88 -122 94
-202 l5 -68 -336 0 -336 0 -34 -30 c-63 -55 -73 -168 -20 -231 49 -58 56 -59
362 -59 l280 0 208 -237 c114 -131 217 -249 229 -262 l21 -24 84 36 c148 63
266 84 372 67 121 -19 254 -102 321 -199 39 -55 76 -163 76 -218 l0 -46 233 7
c127 3 295 9 372 12 l140 6 -3 72 c-6 107 22 173 109 259 80 80 175 129 280
147 122 21 256 -19 377 -112 29 -23 55 -39 57 -37 2 2 119 118 259 257 l254
254 -79 77 c-58 57 -87 95 -111 147 -30 63 -33 77 -33 164 0 52 3 103 7 113 7
16 85 17 1443 17 l1435 0 0 473 c0 261 -3 542 -7 626 l-6 153 -41 -6 c-23 -3
-632 -6 -1355 -8 l-1313 -3 -35 40 c-47 54 -92 151 -100 213 -10 91 30 205
108 308 22 28 39 54 39 59 0 4 -114 122 -254 263 l-255 255 -40 -36 c-152
-137 -340 -164 -519 -73 -135 68 -212 217 -212 408 l0 88 -405 0 -405 0 0 -57z
m627 -938 c216 -41 423 -149 578 -302 69 -69 175 -203 175 -222 0 -7 -160 -12
-497 -13 l-498 -3 -172 -295 c-95 -162 -171 -302 -169 -311 2 -9 56 -106 121
-215 65 -109 143 -243 174 -296 l56 -98 385 -2 c212 -1 420 -2 463 -3 53 0 77
-4 77 -12 0 -25 -197 -210 -283 -267 -482 -319 -1128 -216 -1493 237 -86 107
-176 289 -210 422 -34 134 -42 322 -20 455 38 234 136 427 304 602 159 165
347 269 577 319 104 23 323 25 432 4z m22 -974 c17 -10 18 -15 8 -41 -9 -25
-16 -30 -32 -24 -48 16 -91 16 -105 -1 -18 -22 -6 -32 71 -58 77 -27 98 -55
84 -113 -14 -54 -52 -79 -123 -79 -56 0 -122 20 -122 36 0 20 24 59 34 55 76
-33 136 -31 136 4 0 15 -14 23 -69 40 -60 18 -71 25 -85 55 -26 54 -6 103 55
130 36 16 113 14 148 -4z m1553 9 c46 -13 51 -21 36 -55 -8 -18 -16 -24 -27
-19 -39 16 -97 16 -110 0 -11 -13 -11 -19 -1 -31 7 -8 18 -15 24 -15 31 0 91
-24 112 -45 55 -55 13 -145 -74 -160 -35 -6 -152 16 -152 29 0 20 25 66 34 62
77 -33 136 -31 136 4 0 16 -13 23 -60 37 -85 23 -108 49 -101 113 4 33 26 60
60 74 43 18 74 19 123 6z m446 -16 c32 -21 30 -79 -3 -114 -25 -26 -25 -27 -6
-44 21 -19 41 -14 41 10 0 11 6 14 23 9 34 -11 38 -19 26 -55 -9 -25 -9 -37 0
-53 11 -17 10 -23 -8 -40 -17 -17 -22 -18 -36 -7 -12 10 -21 10 -38 2 -60 -30
-121 -25 -162 14 -35 33 -35 94 1 127 22 21 24 28 15 45 -17 31 -13 66 9 95
31 39 88 43 138 11z m1233 16 c20 -6 44 -19 54 -30 18 -20 18 -21 -4 -44 l-23
-24 -34 20 c-37 22 -66 18 -101 -15 -45 -40 -18 -151 37 -158 35 -4 60 2 75
17 15 16 18 15 43 -10 l27 -27 -27 -24 c-52 -45 -151 -41 -206 9 -37 33 -52
70 -52 126 0 120 95 192 211 160z m695 -7 c12 -4 14 -14 10 -36 -8 -40 -11
-42 -41 -29 -36 17 -80 15 -95 -4 -18 -21 0 -36 72 -58 86 -25 110 -75 69
-142 -28 -45 -100 -64 -171 -44 -59 17 -65 24 -51 58 12 29 13 29 49 16 64
-23 112 -16 112 17 0 14 -16 23 -70 39 -62 18 -73 25 -87 54 -10 21 -13 44 -9
61 8 32 49 72 79 79 25 5 109 -2 133 -11z m-3630 -9 c47 -23 70 -84 52 -139
-10 -32 -22 -45 -58 -62 -24 -13 -61 -23 -82 -23 -38 0 -38 0 -38 -40 l0 -40
-40 0 -40 0 0 160 0 160 86 0 c58 0 97 -5 120 -16z m277 4 c3 -7 32 -79 65
-160 l61 -148 -38 0 c-33 0 -40 4 -51 30 -12 29 -14 30 -82 30 -68 0 -69 -1
-79 -30 -10 -27 -15 -30 -51 -30 -28 0 -39 4 -35 13 3 6 27 64 52 127 26 63
53 130 60 148 12 28 18 32 53 32 23 0 42 -5 45 -12z m384 -8 c21 -13 36 -32
44 -59 14 -47 7 -80 -26 -119 -21 -25 -22 -31 -11 -48 7 -10 21 -31 31 -46
l17 -28 -43 0 c-41 1 -46 3 -72 46 -21 35 -32 45 -50 42 -18 -2 -23 -10 -25
-45 -3 -43 -3 -43 -43 -43 l-39 0 0 160 0 160 93 0 c74 0 98 -4 124 -20z m351
-12 l-3 -33 -70 0 -70 0 -3 -32 -3 -33 65 0 66 0 0 -30 0 -30 -65 0 -65 0 0
-30 0 -29 78 -3 77 -3 3 -32 3 -33 -120 0 -121 0 0 160 0 160 116 0 115 0 -3
-32z m1115 -58 c27 -50 51 -88 55 -86 4 2 27 43 52 90 43 83 46 86 80 86 l35
0 3 -160 4 -160 -41 0 -41 0 0 88 -1 87 -37 -70 c-49 -92 -65 -93 -112 -5
l-35 65 -3 -82 -3 -83 -34 0 -35 0 0 160 0 160 33 0 c30 0 35 -5 80 -90z m535
58 l-3 -33 -60 -1 c-33 -1 -66 -2 -72 -3 -7 0 -13 -14 -13 -31 l0 -30 70 0 70
0 0 -30 0 -30 -70 0 -70 0 0 -30 0 -30 80 0 80 0 0 -35 0 -35 -120 0 -120 0 0
160 0 160 116 0 115 0 -3 -32z m487 -28 l1 -55 57 -3 57 -3 0 61 0 60 40 0 40
0 0 -160 0 -160 -40 0 -40 0 0 65 0 66 -57 -3 -58 -3 3 -62 4 -63 -44 0 -43 0
3 161 3 160 37 -3 36 -3 1 -55z"/>
<path d="M720 3580 c-303 -6 -306 -6 -337 -70 -42 -87 -11 -212 66 -263 35
-23 42 -24 343 -29 304 -6 308 -6 340 16 61 41 99 141 84 221 -14 72 -101 137
-181 133 -22 -1 -164 -5 -315 -8z"/>
<path d="M325 2784 c-74 -38 -99 -83 -93 -170 3 -52 9 -70 34 -101 61 -76 81
-83 228 -83 72 1 151 5 175 9 80 16 131 71 139 150 6 70 -18 131 -71 176 l-41
35 -170 0 c-136 0 -177 -3 -201 -16z"/>
<path d="M641 1260 c-72 -30 -120 -98 -121 -172 0 -71 34 -124 102 -159 34
-17 61 -19 294 -19 240 0 259 1 289 20 95 59 90 242 -8 314 -27 20 -42 21
-280 23 -145 1 -262 -2 -276 -7z"/>
</g>
</svg>
